<svg class="toggle" slot="trailing-accessory" width="16" height="16" viewBox="0 0 16 16" fill="none" xmlns="http://www.w3.org/2000/svg"><g clip-path="url(#clip0)"><path fill-rule="evenodd" clip-rule="evenodd" d="M1.70711 0.292878C1.31658 -0.0976463 0.683418 -0.0976463 0.292893 0.292878C-0.0976311 0.683402 -0.0976311 1.31657 0.292893 1.70709L2.55013 3.96433C1.38429 4.94208 0.502299 6.23046 0.0449702 7.70347C-0.0149901 7.8966 -0.0149901 8.10337 0.0449702 8.29649C1.07604 11.6175 4.26567 14 8 14C9.33924 14 10.6084 13.6936 11.7331 13.1473L14.2929 15.7071C14.6834 16.0976 15.3166 16.0976 15.7071 15.7071C16.0976 15.3166 16.0976 14.6834 15.7071 14.2929L13.4499 12.0356C14.6157 11.0579 15.4977 9.76951 15.955 8.29649C16.015 8.10337 16.015 7.8966 15.955 7.70347C14.924 4.38251 11.7343 1.99998 8 1.99998C6.66076 1.99998 5.39158 2.30641 4.26689 2.85266L1.70711 0.292878ZM2.05607 7.99998C2.43683 6.97522 3.10489 6.07286 3.9716 5.3858L6.0677 7.4819C6.0235 7.64714 5.99994 7.82082 5.99994 8C5.99994 9.10457 6.89537 10 7.99994 10C8.17912 10 8.3528 9.97644 8.51804 9.93224L10.2077 11.6219C9.52221 11.866 8.77873 12 8 12C5.23524 12 2.91488 10.3113 2.05607 7.99998ZM9.93221 8.51798L12.0284 10.6142C12.8951 9.92711 13.5632 9.02475 13.9439 7.99998C13.0851 5.68863 10.7648 3.99998 8 3.99998C7.22127 3.99998 6.47779 4.13395 5.7923 4.37807L7.48196 6.06773C7.64716 6.02355 7.8208 6 7.99994 6C9.10451 6 9.99994 6.89543 9.99994 8C9.99994 8.17914 9.97639 8.35277 9.93221 8.51798Z" fill="black" fill-opacity="0.3"></path></g><defs><clipPath id="clip0"><rect width="16" height="16" fill="white"></rect></clipPath></defs></svg>