<svg class="toggle" slot="trailing-accessory" width="16" height="16" viewBox="0 0 16 16" fill="none" xmlns="http://www.w3.org/2000/svg"><g clip-path="url(#clip0)"><path fill-rule="evenodd" clip-rule="evenodd" d="M8.00006 12C5.2353 12 2.91494 10.3114 2.05613 8C2.91494 5.68865 5.2353 4 8.00006 4C10.7648 4 13.0852 5.68865 13.944 8C13.0852 10.3114 10.7648 12 8.00006 12ZM8.00006 2C4.26573 2 1.0761 4.38252 0.0450312 7.70349C-0.014929 7.89662 -0.014929 8.10338 0.0450312 8.29651C1.0761 11.6175 4.26573 14 8.00006 14C11.7344 14 14.924 11.6175 15.9551 8.29651C16.0151 8.10338 16.0151 7.89662 15.9551 7.70349C14.924 4.38252 11.7344 2 8.00006 2ZM8.00006 10C9.10463 10 10.0001 9.10457 10.0001 8C10.0001 6.89543 9.10463 6 8.00006 6C6.89549 6 6.00006 6.89543 6.00006 8C6.00006 9.10457 6.89549 10 8.00006 10Z" fill="black" fill-opacity="0.3"></path></g><defs><clipPath id="clip0"><rect width="16" height="16" fill="white"></rect></clipPath></defs></svg>